/* XPM */
static char *aa4a01c8fe59444aa029749497537aa742PS1tVlcTpbxR6C[] = {
/* columns rows colors chars-per-pixel */
"60 60 120 2 ",
"   c #41273B",
".  c #44283B",
"X  c #44273A",
"o  c #442639",
"O  c #442638",
"+  c #442739",
"@  c #46293A",
"#  c #472A3B",
"$  c #482B3C",
"%  c #472B3D",
"&  c #462A3D",
"*  c #45293D",
"=  c #44293C",
"-  c #45293A",
";  c #44283C",
":  c #482B3D",
">  c #442839",
",  c #412434",
"<  c #442434",
"1  c #442535",
"2  c #452736",
"3  c #462938",
"4  c #462B39",
"5  c #462C3A",
"6  c #462A38",
"7  c #442635",
"8  c #452635",
"9  c #452937",
"0  c #472E3B",
"q  c #48323E",
"w  c #48343F",
"e  c #472F3B",
"r  c #462B38",
"t  c #472D3A",
"y  c #493540",
"u  c #4B3B44",
"i  c #4B3E46",
"p  c #493640",
"a  c #47303C",
"s  c #462937",
"d  c #442534",
"f  c #452636",
"g  c #4A3942",
"h  c #4C4048",
"j  c #4C434A",
"k  c #4A3A43",
"l  c #452A38",
"z  c #4B3C45",
"x  c #4B3F47",
"c  c #493741",
"v  c #452837",
"b  c #452535",
"n  c #48353F",
"m  c #4A3943",
"M  c #493641",
"N  c #47313D",
"B  c #452938",
"V  c #48333E",
"C  c #472F3C",
"Z  c #462D3A",
"A  c #493842",
"S  c #4A3842",
"D  c #4A3C44",
"F  c #4C4249",
"G  c #452836",
"H  c #48313D",
"J  c #4C4047",
"K  c #4C4148",
"L  c #48303D",
"P  c #4C4248",
"I  c #4E494E",
"U  c #4D444A",
"Y  c #48333F",
"T  c #4D454B",
"R  c #4E484D",
"E  c #4E464C",
"W  c #4B3D45",
"Q  c #4D4349",
"!  c #4E4A4E",
"~  c #4D464B",
"^  c #48323D",
"/  c #4C3F46",
"(  c #48303C",
")  c #49343F",
"_  c #493440",
"`  c #462C39",
"'  c #422535",
"]  c #48313E",
"[  c #4A3B43",
"{  c #4A3B44",
"}  c #462837",
"|  c #472C3A",
" . c #4C4349",
".. c #4B3F46",
"X. c #4D464C",
"o. c #4E474C",
"O. c #412534",
"+. c #47303D",
"@. c #4B4047",
"#. c #4E494D",
"$. c #4D484C",
"%. c #4A3C45",
"&. c #4D434A",
"*. c #4D474C",
"=. c #472D3B",
"-. c #493942",
";. c #452737",
":. c #462838",
">. c #462A39",
",. c #483540",
"<. c #472E3C",
"1. c #4E474B",
"2. c #4D474B",
"3. c #493943",
"4. c #472B39",
"5. c #4B3D46",
"6. c #4C444A",
"7. c #4C4147",
"8. c #4A3741",
"9. c #4A3D45",
/* pixels */
"  . X o O + @ # $ % & * = = = = . . + o o - # $ % & * = = = = ; . X + + - # $ : % & = = = = ; . X o O > @ # : % & = = = ",
", < < < < < < < < < < < < < < < < < < < < < < < < < < < < < < 1 2 3 4 5 6 2 7 < < < < < < < < < < < < < < < < < < < < < ",
", < < < < < < < < < < < < < < < < < < < < < < < < < < < < < < 8 9 0 q w e r 2 < < < < < < < < < < < < < < < < < < < < < ",
", < < < < < < < < < < < < < < < < < < < < < < < < < < < < < < 2 t y u i p a s < < < < < < < < < < < < < < < < < < < < < ",
", < < < < < < < < d 7 7 f f f f 8 7 d < < < < < < < < < < < < 2 0 g h j k q 6 < < < < < 1 7 f f f f f 7 1 < < < < < < < ",
", < < < < < < < < 2 l 4 0 0 0 0 5 6 2 1 < < < < < < < < < < < 2 t p z x c a 3 < < < < f v 4 t 0 0 0 t 4 v 7 < < < < < < ",
", < < < < < < < b 4 a n m m m m M N 4 2 < < < < < < < < < < < 8 B e V y C 4 2 < < < 1 v Z V A m m m S q 0 B 1 < < < < < ",
", < < < < < < < 8 0 w D F F F F i c 0 G < < < < < < < < < < < d 2 6 5 t 6 G 7 < < < b 6 H k J F F F K g q 4 1 < < < < < ",
", d 1 8 8 8 1 d f L g P I I I I U z H s < < < < < < < < < < < < d b 8 8 b 1 < < < < b 4 Y i T R R R E W y t b < < < < < ",
", 2 B 0 C 0 6 2 2 H k Q ! ! ! ! ~ W ^ s < < < < < < < < < < < < < < < < < < < < < < b 6 a c W / / / i p ( r 1 < < < < < ",
", 9 t ) c y 0 B 2 H k Q ! ! ! ! ~ W ^ s < < < < < < < < < < < < < < < < < < < < < < 1 G 4 H _ p p p y ( ` v < < < < < < ",
"' 4 ] [ x { q ` } H k Q ! ! ! ! ~ W ^ s < < < < < < < < < < < < < < < < < < < < < < < 8 v 4 | t t t t 6 v 7 < < < < < < ",
"' 5 Y i  ...) Z v C c ..X.o.o.E P k a v < < < < < < < < 1 2 } s 3 3 s s 2 7 d < < < < < < 1 1 1 1 1 1 1 < < < < < < < < ",
"O.6 C c { S a r 2 Z q S i i i i k ) Z 2 < < < < < < < 1 2 r C q q q q +.t 9 f < < < < < < < < < < < < < < < < < < < < < ",
", v 4 N V H ` v f B t H y y y y V e B f < < < < < < < 8 6 e p k u u { m ^ t v < < < < < < < < < < < < < < < < < < < < < ",
", 1 f } s } f 1 d 7 2 } 3 3 3 3 s G 7 d < < < < < < < 2 0 y @.T o.o.X.j m ] 6 < < d 1 1 d < < < < < < < < < < < < < < < ",
", < < d d d < < < < < d 1 1 1 1 d < < < < < < < < < < 2 C A U #.! ! ! $.W ) 4 1 f v 3 9 v 8 < < < < < < < < < < < < < < ",
", < < < < < < < < < < < < < < < < < < < < < < < < < < 2 C S U I ! ! ! R W ) 4 2 6 Z ] a 5 v 1 < < < < < < < < < < < < < ",
", < < < < < < < < < < < < < < < < < < < < < < < < < < 2 C S U I ! ! ! R W ) 4 s e w %.m V ` 8 < < < < < < < < < < < < < ",
", < < < < < < < < < < < < < < < < < < < < < < < < < < 2 C A &.#.! ! ! *.z ) 4 6 q k  .x A =.2 < < < < < < < < < < < < < ",
", < < < < < < < < < < < < < < < < < < < < < < < < < < f =.y ..U ~ ~ ~ F -.H 3 6 q m F ..c t 2 < < < < < < < < < < < < < ",
", < < < < < < < < < < < < < < < < < < < < < < < < < < b 6 0 y m k k k A N 5 v v Z N c y a 6 8 < < < < < < < < < < < < < ",
", < < < < < < < < < < < < < < < < < < < < < < < < < < 1 2 6 0 L H H H C 5 9 8 f 9 5 C 0 4 ;.1 < < < < < < < < < < < < < ",
", < < < < < < < < < < < < < < < < < < < < < < < < < < < 1 f 2 } } 3 :.} 2 7 d d 7 2 ;.2 2 1 < < < < < < < < < < < < < < ",
", < < < < < < < < < < < < < < < < < < < < < < < < < < < < < < 1 2 6 5 =.>.v 7 < < < < < < < < < < < < < < < < < < < < < ",
", < < < < < < < < < < < < < < < < < < < < < < < < < < < < < < 7 6 C Y y a 4 2 < < < < < < < < < < < < < < < < < < < < < ",
", < < < < < < < < < < < < < < < < < < < < < < < < < < < < < < 2 5 w k W ,.e s < < < < < < < < < < < < < < < < < < < < < ",
", < < < < < < < < < < < < < < < < 1 8 f f b 1 < < < < < < < < 2 <.m K U k q 6 < < < < < < < < < < < < < < < < < < < < < ",
", < < < < < < < < < < < < < < < 1 v ` =.=.6 2 1 < < < < < < < 2 5 y { i p a 3 < < < < < < < < < < < < < < < < < < < < < ",
", < < < < < < < < < < < < < < < 2 4 N ,.y 0 6 f < < < < < < < 8 6 C ) p a ` v < < < < < < < < < < < < < < < < < < < < < ",
", < < < < < < < < < < < < < < 1 B a g x ..y 0 2 < < < < < < < 1 f 3 4 4 3 2 1 < < < < < < < < < < < < < < < < < < < < < ",
", < < < < < < < < < < < < < < 1 6 q i T U m L } < < < < < < < < < 1 7 7 1 d < < < < < < < < < < < < < < < < < < < < < < ",
", < < < < < < < < < < < < < < 1 6 V / 1.~ k H } < < < < < < < < < < < < < < < < < < < < < < < < < < < < < < < < < < < < ",
", < < < < < < < < < < < < < < 1 6 V / 1.~ k H } < < < < < < < < < < < < < < < < < < < < < < < < < < < < < < < < < < < < ",
", < < < < < < < < < < < < < < 1 6 V ..2.~ k H } < < < < < < < < < < < < < < < < < < < < < < < < < < < < < < < < < < < < ",
", < < < < < < < < < < < < < < 1 3 H %. .F A C ;.< < < < < < < < < < < < < < < < < < < < < < < < < < < < < < < < < < < < ",
", < < < < < < < < < < < < < < d v Z w 3.-.N 5 2 < < < < < < < < < < < < < < < < < < < < < < < < < < < < < < < < < < < < ",
", < < < < < < < < < < < < < < < f 3 0 H H 5 9 7 < < < < < < < < < < < < < < < < < < < < < < < < < < < < < < < < < < < < ",
", < < < < < < < < < < < < < < < 1 f s 3 3 v 8 < < < < < < < < < < < < < < < < < < < < < < < < < < < < < < < < < < < < < ",
", < < < < < < < < < < < < < < < 1 2 s 6 6 v f d < < < < < < < < < < < < < < < < < < < 7 2 3 >.4.4.4.4 s 2 7 < < < < < < ",
", < < < < < < < < < < < < < < < f 6 e q q Z 9 7 < < < < < < < < < < < < < < < < < < d 2 r a Y ) ) ) Y C 4 v < < < < < < ",
", < < < < < < < < < < < < < < d v Z w k m N 5 2 < < < < < < < < < < < < < < < < < < 1 3 e p { W W W z ,.a 6 1 < < < < < ",
", < < < < < 1 b b b 1 < < < < 1 3 ] %. .F c C ;.< < < < < < < < < < < < < < < < < < b ` w i ~ R R R *.5.y =.1 < < < < < ",
", < < < < f v 6 4 6 G 8 < < < 1 9 a m x ..y 0 2 < < < < < < < < < < < < < < < < < < b | y K R ! ! ! I J c 0 b < < < < < ",
", < < < 1 v Z H Y a 4 v < < < d v 5 V A c a 4 2 < < < < < < < < < < < < < < < < < < b | y K R ! ! ! ! J c 0 b < < < < < ",
", < < < 7 4 V k i c H 4 1 < < < 8 v ` =.t 6 ;.1 < < < < < < < < < < < < < < < < < < b | y K R ! ! ! ! J c 0 b < < < < < ",
", < < < f | c ..6.D Y 5 1 < < < < 1 8 2 2 8 1 < < < < < < < < < < < < < < < < < < < b 5 _ x *.#.#.#.R i M =.1 < < < < < ",
", < < < 7 4 n D J -.q 4 1 < < < < < < < < < < < < < < < < < < < < < < < < < < < < < b r H k 7.Q Q Q P m V ` 1 < < < < < ",
", < < < 1 9 0 V y N Z 9 d < < < < < < < < < < < < < < < < < < < < < < < < < < < < < 1 v ` q p 8.8.8.M N Z 9 1 < < < < < ",
", < < < d f 6 ` =.4 v f < < < < < < < < < < < < < < < < < < < < < < < < < < < < < < < 7 v ` =.0 0 0 0 4 9 f < < < < < < ",
", < < < < d b 8 f 8 1 < < < < < < < < < < < < < < < < < < < < < < < < < 1 b 8 8 b 1 < d 1 8 f 2 2 2 f 8 1 d < < < < < < ",
", < < < < < < < < < < < < < < < < < < < < < < < < < < < < < < < < < < 1 9 ` 0 0 4 v 1 < < < < < < < < < < < < < < < < < ",
", < < < < < < < < < < < < < < < < < < < < < < < < < < < < < < < < < < f 5 N p p a ` 8 < < < < < < < < < < < < < < < < < ",
", < < < < < < < < < < < < < < < < < < < < < < < < < < < < < < < < < < 2 a M W 9.p C 2 < < < < < < < < < < < < < < < < < ",
", < < < < < < < < < < < < < < < < < < < < < < < < < < < < < < < < < < ;.^ m K K g H 2 < < < < < < < < < < < < < < < < < ",
", < < < < < < < < < < < < < < < < < < < < < < < < < < < < < < < < < < 2 0 w k k w 0 2 < < < < < < < < < < < < < < < < < ",
", < < < < < < < < < < < < < < < < < < < < < < < < < < < < < < < < < < f 6 e Y V 0 6 8 < < < < < < < < < < < < < < < < < ",
", < < < < < < < < < < < < < < < < < < < < < < < < < < < < < < < < < < < f v 3 3 v f < < < < < < < < < < < < < < < < < < ",
", < < < < < < < < < < < < < < < < < < < < < < < < < < < < < < < < < < < < d 1 1 d < < < < < < < < < < < < < < < < < < < ",
", < < < < < < < < < < < < < < < < < < < < < < < < < < < < < < < < < < < < < < < < < < < < < < < < < < < < < < < < < < < "
};
