/* XPM */
static char *_130c4dc7cab4428c4bb8c151d1d5f1bZeOQROxHPhawrjuF[] = {
/* columns rows colors chars-per-pixel */
"60 60 165 2 ",
"   c #2B223C",
".  c #442434",
"X  c #452837",
"o  c #442739",
"O  c #462B3A",
"+  c #492B3C",
"@  c #47303C",
"#  c #48323E",
"$  c #715B3E",
"%  c #7E6538",
"&  c #342945",
"*  c #362B49",
"=  c #392E4D",
"-  c #3C314F",
";  c #3C2F52",
":  c #3E3254",
">  c #493640",
",  c #4A3C44",
"<  c #553948",
"1  c #593E4C",
"2  c #403456",
"3  c #43355B",
"4  c #46395E",
"5  c #493C5E",
"6  c #463761",
"7  c #473860",
"8  c #4B3C64",
"9  c #4E3E69",
"0  c #4C4047",
"q  c #4C4349",
"w  c #4E494E",
"e  c #5C4150",
"r  c #564659",
"t  c #554E53",
"y  c #645058",
"u  c #7C6A4D",
"i  c #7E6F5E",
"p  c #4E4067",
"a  c #4F4069",
"s  c #52436D",
"d  c #5A4F6D",
"f  c #564572",
"g  c #584775",
"h  c #5A4975",
"j  c #59467A",
"k  c #5D4B7A",
"l  c #5D5072",
"z  c #6A5564",
"x  c #614F7E",
"c  c #62517E",
"v  c #645A74",
"b  c #6D6065",
"n  c #7A656D",
"m  c #76656A",
"M  c #6E667A",
"N  c #796570",
"B  c #7F6D75",
"V  c #76727E",
"C  c #80673B",
"Z  c #9C7D43",
"A  c #977C4C",
"S  c #827052",
"D  c #887553",
"F  c #877965",
"G  c #8B7963",
"H  c #83796E",
"J  c #817077",
"K  c #83727D",
"L  c #9C8051",
"P  c #988158",
"I  c #A28247",
"U  c #A5854B",
"Y  c #AC8A4A",
"T  c #B28E4B",
"R  c #B4904C",
"E  c #BB954E",
"W  c #BE984F",
"Q  c #A48652",
"!  c #A88C59",
"~  c #BF9950",
"^  c #8E806B",
"/  c #9A8668",
"(  c #9D8A6C",
")  c #978A76",
"_  c #948774",
"`  c #9C917F",
"'  c #A58D64",
"]  c #A7916D",
"[  c #A9926A",
"{  c #B0976B",
"}  c #A3957D",
"|  c #C59E52",
" . c #614E82",
".. c #655383",
"X. c #685686",
"o. c #6A5B85",
"O. c #675389",
"+. c #695689",
"@. c #6C598C",
"#. c #705D8F",
"$. c #6F5A91",
"%. c #725D93",
"&. c #6D6281",
"*. c #756C84",
"=. c #706288",
"-. c #75698A",
";. c #797087",
":. c #7D7885",
">. c #7E758C",
",. c #746195",
"<. c #796895",
"1. c #776299",
"2. c #79649C",
"3. c #7C689F",
"4. c #7C67A0",
"5. c #7E69A2",
"6. c #877982",
"7. c #8A7C85",
"8. c #807791",
"9. c #867B96",
"0. c #81729A",
"q. c #816BA5",
"w. c #846EA9",
"e. c #8770AC",
"r. c #8972AE",
"t. c #8C75B2",
"y. c #8F78B5",
"u. c #888287",
"i. c #85818B",
"p. c #9F9485",
"a. c #98918F",
"s. c #8A8496",
"d. c #8E8897",
"f. c #8B829A",
"g. c #928690",
"h. c #918891",
"j. c #9B8E90",
"k. c #938C9D",
"l. c #9B969C",
"z. c #999398",
"x. c #A79C8A",
"c. c #A69F9C",
"v. c #A59C92",
"b. c #ACA193",
"n. c #ABA49D",
"m. c #948DA0",
"M. c #9792A0",
"N. c #9B98A2",
"B. c #A49EAC",
"V. c #A39BA5",
"C. c #A4A2A6",
"Z. c #ACA6A2",
"A. c #A8A3AE",
"S. c #B0A7A1",
"D. c #B6AFA9",
"F. c #B5ACA1",
"G. c #B9B1A9",
"H. c #A7A1B1",
"J. c #ABA5B5",
"K. c #AFACB3",
"L. c #D1CFD2",
"P. c #DAD9DD",
"I. c #EFEFEF",
"U. c #F6F6F6",
"Y. c #F9F9F9",
/* pixels */
"o o o o o o o o + O + + + + o o o o o o o o o + + + + + + + + + o o o o o o + + O + + + + + + o o o o o o o + + + + + + ",
". . . . . . . . . . . . . . . . . . . . . . . . . . . . . . . . . o O O o . . . . . . . . . . . . . . . . . . . . . . . ",
". . . . . . . . . . . . . . . . . . . . . . . . . . . . . . . . X O # # @ O X . . . . . . . . . . . . . . . . . . . . . ",
". . . . . . . . . . . . . . . . . . . . . . . . . . . . . . . . O > , , > # X . . . . . . . . . . . . . . . . . . . . . ",
". . . . . . . . . . . . . . . . . . . . . . . . . . . . . . . . O , q q , # o . . . . . . . . . . . . . . . . . . . . . ",
". . . . . . . . . . o o O O O O O o . . . . . . . . . . . . . . O > , , > # o . . . . . X o O O O O O o X . . . . . . . ",
". . . . . . . . . o # # , , , , > # o . . . . . . . . . . . . . o O # > O o . . . . . X O # , , , , , # O o . . . . . . ",
". . . . . . . . . O # , q q q q , > O X . . . . . . . . . . . . . o O O o X Z.} G ^ b.o # , 0 q q q q , # o . . . . . . ",
". . . . . . . . . # , q w w w w q , # X . . . . . . . . . . . . . . . b.' Y | | | | | P # , q w w w w , > O . . . . . . ",
". . o O O O o X X # , q w w w w q , # X . . . . . . . . . . . . n.] U W I ( F.n + D.! | ( > , , , , , > # o . . . . . . ",
". X O # > > O o . # , q w G.x.w q , # X . . . . . . . . Z.} ! Y | T G D.. . . . . . j.R U l.> > > > > # O X . . . . . . ",
". o # , , , # O X # , q w { Y ] n.u.> X . N Z.v.) ' Q T | | | L b.1 . . . . . . . . . } W ) O O O O O o X . . . . . . . ",
". O # , q 0 # O X O > , w / % E R R T T T E ~ R Z Z C S _ U E n o o X X . . . < . . . S.| [ . . . . . . . . . . . . . . ",
". o O , , , # o . O # , , , , c.H i G F ^ ` n.Z.B . . . . D R m # # # # O X . n.a.. . p.| [ . . . . . . . . . . . . . . ",
". X o # # # O X . o O # > > > > # O o . . . . . . . . . o u T b , , , , # O X . u A Q ~ T n.. . . . . . . . . . . . . . ",
". . . X X X . . . . . X o o o o X X . . . . . . . . . . B.u Y a.V.t w q , # o . . D.b.b.J . . . . . . . . . . . . . . . ",
". . . . . . . . . . . . . . . . . . . . . . . . e J.8.o.h $ Z r q.=.f.K., # o . . X o X X . . . . . . . . . . . . . . . ",
". . . . . . . . . . . . . . . . . . . . . . J.-.1.4...@.3.z y h t.q.X.8 o.m.z . o O # # O X . . . . . . . . . . . . . . ",
". . . . . . . . . . . . . . . . . . . V.s.&.9 k h k k r.y.t.r.t.e...2 s c h l H.@ # , , # O . . . . . . . . . . . . . . ",
". . . . . . . . . . . . . . . . . . >.5 5 ..O.h +.s k k +...@.h k ..s s s X.g X.*., q , , O . . . . . . . . . . . . . . ",
". . . . . . . . . . . . . . . . . H.8 h = k  .e.w.@.9 ..a 5 k @.r.q.t.h k s 3 @.o.9.q , > O . . . . . . . . . . . . . . ",
". . . . . . . . . . . . . . . . B.1.k 8 h s %.1.%.e.s w.f h 8 @.X.g 3...s s g s h ..>.> # o . . . . . . . . . . . . . . ",
". . . . . . . . . . . . . . . z c c q.s g : 2.X.q...k 1...r.%.2  .w.@.h x ..k 7 : x X.H.o . . . . . . . . . . . . . . . ",
". . . . . . . . . . . . . . . <.4.x %.9 ..9 ..1.k 9 k 4.h  .%.4 k 1.k 8 %.x %.g s 8 k c . . . . . . . . . . . . . . . . ",
". . . . . . . . . . . . . . s.r.@.k k 4 @.q.f 2 2 9 2 k 3.3.j g ..= 9 +. .8 %...4.: = s *.. . . . . . . . . . . . . . . ",
". . . . . . . . . . . . . . : s @.h 7 8 %...g g 4.%.4. .* 3 9 1.1.s 1.g ..q.4 a 5 5 9 1.s &.. . . . . . . . . . . . . . ",
". . . . . . . . . . . . . M 9 & s k h g c ..4 1...O.8 r.2 s 4 %.X...@.%.2.t.g +.k 3 = ; %.3.. . . . . . . . . . . . . . ",
". . . . . . . . . . . . . 5 9 +.2 7 s 4 9 7 ; %.k w...y.h 3.c ..: 9 4.x q.%.2 4.%.g X.  +.g A.. . . . . . . . . . . . . ",
". . . . . . . . . . . . C.X.g k 9 g 8 s %.g 8 O.k $.r.5.5 %.q.X...: 1.4...c s ..s 2 8 g g q.f.. . . . . . . . . . . . . ",
". . . . . . . . . . . . K 9 g & 8 +.h 4 2 = ; j $.8 8 2 3 @.h ..O...7 $.e.4.s - h a s p h ..&.. . . . . . . . . . . . . ",
". . . . . . . . . . . . g.s 9 s 5 3 4 : 8 s 7 :  .q.9 %...p 8 k 5 g 5 2 * 9 %.g c k 7 g s @.- . . . . . . . . . . . . . ",
". . . . . . . . . . . . :.1.s h k e.4.s g 4.8 7 : g 5 h 1.g 2 g a h g e.e.8 s s k h s 4.7 k & . . . . . . . . . . . . . ",
". . . . . . . . . . . . V X.s 6 4.h h ..8 9 5 h O.k 9 9 ..@.h ..r.g s X.3.g X...c s 2 h 7 2 : . . . . . . . . . . . . . ",
". . . . . . . . . . . . s.7 2 %.+.4.+.+.s 3 4 9 8 k c 9 s 9 7 ..1.h s s k h c h X.g 8 s k = 9 7.. . . . . . . . . . . . ",
". . . . . . . . . . . . . s = 2.X.q.e.4.9 %.s 2 @...g +.9 @.5 7 @.1.s s h 4 1.1.2.2 8 s ..& @.B.. . . . . . . . . . . . ",
". . . . . . . . . . . . . l : j 3.k x 9 x ..7 s %.+...%.; h 4 4.@...4.5 g a 5 h 9 2 a = 8 s ..1 . . . . . . . . . . . . ",
". . . . . . . . . . . . . v k & 4.w.X.4 k 9 2 s 1.h s q.= 2 g w.h %.3.@...4.k 2 +.k h 8 $.8 >.. . . . . . . . . . . . . ",
". . . . . . . . . . . . . o.2 8 %.y.1.s g 9 9 9 q.3.q.O.: 8 g q. .r.r.1.2 k g : x w...9 @.o.. . . . . . . . . . . . . . ",
". . . . . . . . . . . . . -.9 9 O.X.8 9 g g 9 p 5 k s 9 9 3.8 w.k ,.1.s : s k ..2 : : 3 7 9.. . . . . . . . . . . . . . ",
". . . . . . . . . . . . . K g s 7 h ..5 2 s c ..h 9 3 k h X.2  .e.,.#.1.4 +.X.@.9 g +.1.2.C.o o o o o X . . . . . . . . ",
". . . . . . . . . . . . . . ;.c 5 s k ..s ..1.s g p 2 s 3 2 4 2 ..w.r.t.g 7 x s 7 2...g q.# # # # # # O o X . . . . . . ",
". . . . . . . . . . . . . . B.X.: h w.,.,...s %.k s 3.: g $.:  ...x k h 9 g 2 7 7 3...+.0.> , , , , , > # o . . . . . . ",
". . . . . . . . . . . . . . . 5 9 q.h $.k %.s c h 9 g : h X.7 j t.q.@.@.h k s 7 = k k 1.h., q w w w w , > O . . . . . . ",
". . . . . . X o o o X . . . . . h 1...q...3.9 s = g q.3.+.: 2 9 = k 3.h g s h s g 9 k i.> q w w w w w 0 > O . . . . . . ",
". . . . . X O # # # o X . . . . 8. .k t.t.h 7 5 : w.8 s 1.k 4 q.9 3.c g $.2 : 2 s k N.O > q w w w w w 0 > O . . . . . . ",
". . . . . o # , , > # o . . . . . >.9 9 g = 8 ..s 3.s q.4.%.= : g 1.+.g 4.8 ; 7 2 :.. O > q w w w w w 0 > O . . . . . . ",
". . . . . O > , q , # O . . . . . . . M.X.g g s 3 3.7 q.t.h : q.7 r.1.r.1.: 8 s k.. . O > , w w w w w , > O . . . . . . ",
". . . . . O # , 0 , # o . . . . . . . . . d.d 2 2 +.1.4 4 9 3 5. .9 %.k 9 g v N . . . o # , 0 q q q q , # O . . . . . . ",
". . . . . X O # > # O X . . . . . . . . . . . . l.l 2.w.%. .2 g k f k %.,.J.. . . . . X O # > > > > > # O X . . . . . . ",
". . . . . . o O O o X . . . . . . . . . . . . . . . 6.K.P.U.Y.Y.I.L.l.N.. . . . . . . . X O O O O O O O X . . . . . . . ",
". . . . . . . . . . . . . . . . . . . . . . . . . . . . . . . . . . . . . . . . . . . . . . . . . X . . . . . . . . . . ",
". . . . . . . . . . . . . . . . . . . . . . . . . . . . . . . . . . . . X O O O o X . . . . . . . . . . . . . . . . . . ",
". . . . . . . . . . . . . . . . . . . . . . . . . . . . . . . . . . . . O # > > # O . . . . . . . . . . . . . . . . . . ",
". . . . . . . . . . . . . . . . . . . . . . . . . . . . . . . . . . . . # > , , > O . . . . . . . . . . . . . . . . . . ",
". . . . . . . . . . . . . . . . . . . . . . . . . . . . . . . . . . . . # , q q , # . . . . . . . . . . . . . . . . . . ",
". . . . . . . . . . . . . . . . . . . . . . . . . . . . . . . . . . . . O # , , # O . . . . . . . . . . . . . . . . . . ",
". . . . . . . . . . . . . . . . . . . . . . . . . . . . . . . . . . . . o O # # O o . . . . . . . . . . . . . . . . . . ",
". . . . . . . . . . . . . . . . . . . . . . . . . . . . . . . . . . . . . X o o X . . . . . . . . . . . . . . . . . . . ",
". . . . . . . . . . . . . . . . . . . . . . . . . . . . . . . . . . . . . . . . . . . . . . . . . . . . . . . . . . . . ",
". . . . . . . . . . . . . . . . . . . . . . . . . . . . . . . . . . . . . . . . . . . . . . . . . . . . . . . . . . . . "
};
