/* XPM */
static char *_137246c5ad340d5daa0307a9d1982a0qFFSXlKPFPdfq3rI[] = {
/* columns rows colors chars-per-pixel */
"60 60 165 2 ",
"   c #000000",
".  c #0C0800",
"X  c #0B0609",
"o  c #0C080A",
"O  c #120B07",
"+  c #1D1401",
"@  c #170C11",
"#  c #1B1117",
"$  c #1F1118",
"%  c #2B0000",
"&  c #230000",
"*  c #231801",
"=  c #291A0C",
"-  c #301E0F",
";  c #2E1B16",
":  c #23131B",
">  c #28151E",
",  c #241A1F",
"<  c #311C1D",
"1  c #3A2801",
"2  c #3E290D",
"3  c #2B2215",
"4  c #2C231A",
"5  c #392816",
"6  c #2B270A",
"7  c #031C26",
"8  c #060029",
"9  c #2E1A24",
"0  c #251D21",
"q  c #321B26",
"w  c #391E2B",
"e  c #351C28",
"r  c #2D2329",
"t  c gray17",
"y  c #34242C",
"u  c #3C222F",
"i  c #312822",
"p  c #3D2230",
"a  c #3A2A32",
"s  c #3F343B",
"d  c #471C12",
"f  c #6A0000",
"g  c #750405",
"h  c #402C01",
"j  c #5B230F",
"k  c #463001",
"l  c #4B3301",
"z  c #563A01",
"x  c #553A06",
"c  c #483C19",
"v  c #7A221B",
"b  c #613707",
"n  c #442434",
"m  c #452837",
"M  c #442739",
"N  c #462B3A",
"B  c #482B3C",
"V  c #47303C",
"C  c #48323E",
"Z  c #4B393F",
"A  c #473924",
"S  c #5D4002",
"D  c #554E14",
"F  c #4F4516",
"G  c #6A4802",
"H  c #684404",
"J  c #744F01",
"K  c #7B5403",
"L  c #55442B",
"P  c #604A33",
"I  c #6A5535",
"U  c #715A3A",
"Y  c #150179",
"T  c #15036B",
"R  c #372268",
"E  c #493640",
"W  c #4A3C44",
"Q  c #423C41",
"!  c #4C4047",
"~  c #4D444A",
"^  c #4E494E",
"/  c #5B4454",
"(  c #800000",
")  c #950000",
"_  c #AA0000",
"`  c #842E18",
"'  c #A32D24",
"]  c #D50000",
"[  c #DC0000",
"{  c red",
"}  c #CB382D",
"|  c #805600",
" . c #825902",
".. c #B6451F",
"X. c #8B6003",
"o. c #976803",
"O. c #976703",
"+. c #80761E",
"@. c #AE7803",
"#. c #AC7401",
"$. c #B47C03",
"%. c #805535",
"&. c #80693A",
"*. c #C0521C",
"=. c #DD7615",
"-. c #E47319",
";. c #E85D25",
":. c #F44336",
">. c #806640",
",. c #8E7147",
"<. c #BB8003",
"1. c #AA992F",
"2. c #C78903",
"3. c #D48F01",
"4. c #D7830C",
"5. c #D19004",
"6. c #DA9503",
"7. c #DE9803",
"8. c #E39B02",
"9. c #E99E02",
"0. c #E3850E",
"q. c #EDA102",
"w. c #F5A601",
"e. c #FFAB00",
"r. c #D5C03B",
"t. c #FFEB3C",
"y. c #AA8855",
"u. c #B28F5A",
"i. c #B8935C",
"p. c #BF9960",
"a. c #B89664",
"s. c #C69F64",
"d. c #D5AA6B",
"f. c #DCB06E",
"g. c #D5AF71",
"h. c #E3B572",
"j. c #FFDC5E",
"k. c #FFE744",
"l. c #FFE152",
"z. c #F5C47B",
"x. c #FFD175",
"c. c #17018B",
"v. c #160090",
"b. c #3F0089",
"n. c #1900A5",
"m. c #2106AF",
"M. c #492D8A",
"N. c #4322BA",
"B. c #1F00CE",
"V. c #3400CE",
"C. c #2100DC",
"Z. c #2300E9",
"A. c #2500F7",
"S. c #6039C8",
"D. c #6E44CF",
"F. c #10A7E3",
"G. c #AAAAAA",
"H. c #D7C691",
"J. c #F1C687",
"K. c #FFCC80",
"L. c #FFD595",
"P. c #FFDDAA",
"I. c #F1D5AA",
"U. c #D5D5D5",
"Y. c white",
/* pixels */
"M M M M M M M M B N B B B B B M M M M M M M M B B B B B B B B B M M M M M M B B N B B B B B B M M M M M M M B B B B B B ",
"n n n n n n n n n n n n n n n n n n n n n n n n n n n n n n n n n M M N M n n n n n n n n n n n n n n n n n n n n n n n ",
"n n n n n n n n n n n n n n n n n n n n n n n n n n n n n n n n m N C C V N m n n n n n n n n n n n n n n n n n n n n n ",
"n n n n n n n n n n n n n n n n n n n n n n n n n n n n n n n n N E W W E C m n n n n n n n n n n n n n n n n n n n n n ",
"n n n n n n n n n n n n n n n n n n n n n n n n n n n n n n n n N W ~ ~ W C M n n n n n n n n n n n n n n n n n n n n n ",
"n n n n n n n n n n M M N N N N N M n n n n n n n n n n n n n n N E W ! E C M n n n n n m M N N N N N M m n n n n n n n ",
"n n n n n n n n n M C C W W W W E C M n n n n n n n n n n n n n M N C E N M n n n n n m N C W W W W W C N M n n n n n n ",
"n n n n n n n n n N C W ~ ~ ~ ~ W E N m n n n n n n n n n n n n n M N N M m n n n n n M C W ! ~ ~ ~ ~ W C M n n n n n n ",
"n n n n n n n n n C W ~ ^ ^ ^ ^ ~ W C m n n n n n n n n n n n n n n n n n n n n n n n M C W ~ ^ ^ ^ ^ W E N n n n n n n ",
"n n M N N N M m m C W ~ ^ ^ ^ ^ ~ W C m n n n n n :                 @ n n n n n n n n M C E W W W W W E C M n n n n n n ",
"n m N C E E N M n C W ~ ^ ^ ^ ^ ~ W C m n n n @ X x <.3.3.3.3.3.<.@.K X X n n n n n n m M C E E E E E C N m n n n n n n ",
"n M C W W W C N m C W ~ ^ ^ ^ ^ ~ W C m n n X O.@.3.q.6.6.6.6.6.q.w.7.@.@.X w n n n n n m M N N N N N M m n n n n n n n ",
"n N C W ~ ! C N m N E W ^ ^ ^ ^ ~ W C p @ @   1 k l l b ;.;.;.;.0.8.8.9.5.X.= u n n n n n n n n n n n n n n n n n n n n ",
"n M N W W W C M n N C W W W W W W y : ; G | | | | J G H v v v v *.-.=.8.5.5.K ; w n n n n n n n n n n n n n n n n n n n ",
"n m M C C C N m n M N C E E E E a 5 k G 8.e.e.e.e.w.8.2.z z k k ` ' ..=.=.5.5.* 9 n n n n n n n n n n n n n n n n n n n ",
"n n n m m m n n n n n m M M M p -  .8.e.w.w.w.w.w.w.w.w.w.w.7.6.H * j } } 4.3.h < p n n n n n n n n n n n n n n n n n n ",
"n n n n n n n n n n n n n n n X #.e.e.w.5.5.5.5.5.5.5.5.5.5.w.e.e.9.X.    :.4.5.k : M m m n n n n n n n n n n n n n n n ",
"n n n n n n n n n n n n n n   @.w.e.w.5.5.5.        k 5.5.5.5.5.5.9.e.w.5.    @.k : C C N m n n n n n n n n n n n n n n ",
"n n n n n n n n n n n n n n   @.w.q.6.$.* *         . * * * $.5.5.6.6.7.w.3.$.1 . , W W C N n n n n n n n n n n n n n n ",
"n n n n n n n n n n n n n n w = o.K * +           I ,.      + * * K 5.5.6.6.w.<.1 0 ~ W W N n n n n n n n n n n n n n n ",
"n n n n n n n n n n n n n n n q 2 *             U d.y.            * k S 5.5.7.q.@.x r W E N m n n n n n n n n n n n n n ",
"n n n n n n n n n n n n n n n > X               y.K.d.I               . G 5.5.8.9.J # E C M n n n n n n n n n n n n n n ",
"n n n n n n n n n n n n n n n X o X             y.K.K.h.L                 X.2.5.8.o.2 y M n n n n n n n n n n n n n n n ",
"n n n n n n n n n n n n n n n @ q :         t 4 i.K.K.z.d.t X               @.5.5.5.X.X n n n n n n n n n n n n n n n n ",
"n n n n n n n n n n n n n n n n n :         Y.L.K.K.K.d.  Y.t               @.5.5.5.X.X n n n n n n n n n n n n n n n n ",
"n n n n n n n n n n n n n n n n n :   t Y.F.  d.K.K.K.H.F.  U.t               @.5.5.X.X n n n n n n n n n n n n n n n n ",
"n n n n n n n n n n n n n n n n n p > t Y.7   d.K.K.K.g.7   U.t ,.I         O.1 o.5.X.X n n n n n n n n n n n n n n n n ",
"n n n n n n n n n n n n n n n n n n 9 4 P.G.G.J.K.K.K.J.G.G.I.a.h.>.5 ,.    @.o.<.X.2 q n n n n n n n n n n n n n n n n ",
"n n n n n n n n n n n n n n n n n m 9 3 K.P.P.K.K.K.K.K.P.P.K.K.K.>.L z.y.  @.S k 5 e n n n n n n n n n n n n n n n n n ",
"n n n n n n n n n n n n n n n n n M r 3 K.K.K.K.K.K.K.K.K.K.K.K.K.p.y.K.K.  z ; : q n n n n n n n n n n n n n n n n n n ",
"n n n n n n n n n n n n n n n n M C a i y.K.K.K.K.K.K.K.K.K.K.K.K.K.K.z.y.@ @ u n n n n n n n n n n n n n n n n n n n n ",
"n n n n n n n n n n n n n n n n M C W Q o d.d.z.K.K.K.K.K.K.K.K.h.d.d.u.X n n n n n n n n n n n n n n n n n n n n n n n ",
"n n n n n n n n n n n n n n n n M C W ~ ~     d.K.K.K.K.K.K.K.K.L     X n n n n n n n n n n n n n n n n n n n n n n n n ",
"n n n n n n n n n n n n n n n n M C W ~ ~ W C o                   : n n n n n n n n n n n n n n n n n n n n n n n n n n ",
"n n n n n n n n n n n n n n n n M C W ^ ~ W C u @ f ] ] ] ] & u.A : n n n n n n n n n n n n n n n n n n n n n n n n n n ",
"n n n n n n n n n n n n n n n n M C W ~ ~ W C $ g ] { { { { % d.s.P > n n n n n n n n n n n n n n n n n n n n n n n n n ",
"n n n n n n n n n n n n n n n n m N C W W C N X _ { { { { { % d.K.>.@ n n n n n n n n n n n n n n n n n n n n n n n n n ",
"n n n n n n n n n n n n n n n n n M N C C N : g ] { { { { { ) %.d.p.P > n n n n n n n n n n n n n n n n n n n n n n n n ",
"n n n n n n n n n n n n n n n n n n m M M 9   ] { { { { { { { % y.K.y.X n n n n n n n n n n n n n n n n n n n n n n n n ",
"n n n n n n n n n n n n n n n n n n m m u 3   ] { { { { { { [ d i.K.y.X w n n n n n n n n M M M M M M m n n n n n n n n ",
"n n n n n n n n n n n n n n n n n M N a   K.  ] { { { { { { % d.K.K.y.    n n n n n n n M C C C C C C N M m n n n n n n ",
"n n n n n n n n n n n n n n n n m N C s   K.K.3   ( { { { { % d.K.K.K.K.K.  w n n n n M N E W W W W W E C M n n n n n n ",
"n n n n n n n n n n n n n n n n M C W ! s 3 3 m.B.V.b.% % %   d.K.K.K.K.K.  w n n n n N C W ~ ^ ^ ^ ^ W E N n n n n n n ",
"n n n n n n m M M M m n n n n n m C W W W y   B.A.A.C.n.n.n.n.Z s.K.K.h.L 9 n n n n n N E ~ ^ ^ ^ ^ ^ ! E N n n n n n n ",
"n n n n n m N C C C M m n n n n m N C W E C : T B.A.B.Y Y A.A.v./ >.>.U : n n n n n n N E ~ ^ ^ ^ ^ ^ ! E N n n n n n n ",
"n n n n n M C W W E C M n n n n n m N N N 9 9 X M.N.Y @ @ n.Z.A.c.8 X $ n n n n n n n N E ~ ^ ^ ^ ^ ^ ! E N n n n n n n ",
"n n n n n N E W ~ W C N n n n n n n n n 9 L L L s.>.@ n n @ c.S.D.R @ n n n n n n n n N E W ^ ^ ^ ^ ^ W E N n n n n n n ",
"n n n n n N C W ! W C M n n n n n n n e 6 x.x.x.x.&.@ n n w 4 f.K.>.@ n n n n n n n n M C W ! ~ ~ ~ ~ W C N n n n n n n ",
"n n n n n m N C E C N m n n n n n n 9 6 t.t.t.t.t.+.@ n n   d.K.K.>.@ n n n n n n n n m N C E E E E E C N m n n n n n n ",
"n n n n n n M N N M m n n n n n n n n w           : n n n   d.K.l.j.y.X n n n n n n n n m N N N N N N N m n n n n n n n ",
"n n n n n n n n n n n n n n n n n n n n w w w w w p n n n   r.k.t.k.1.X n n n n n n n n n n n n n m n n n n n n n n n n ",
"n n n n n n n n n n n n n n n n n n n n n n n n n n n n n 9 F D D D c q m N N N M m n n n n n n n n n n n n n n n n n n ",
"n n n n n n n n n n n n n n n n n n n n n n n n n n n n n n > : : : 9 n N C E E C N n n n n n n n n n n n n n n n n n n ",
"n n n n n n n n n n n n n n n n n n n n n n n n n n n n n n n n n n n n C E W W E N n n n n n n n n n n n n n n n n n n ",
"n n n n n n n n n n n n n n n n n n n n n n n n n n n n n n n n n n n n C W ~ ~ W C n n n n n n n n n n n n n n n n n n ",
"n n n n n n n n n n n n n n n n n n n n n n n n n n n n n n n n n n n n N C W W C N n n n n n n n n n n n n n n n n n n ",
"n n n n n n n n n n n n n n n n n n n n n n n n n n n n n n n n n n n n M N C C N M n n n n n n n n n n n n n n n n n n ",
"n n n n n n n n n n n n n n n n n n n n n n n n n n n n n n n n n n n n n m M M m n n n n n n n n n n n n n n n n n n n ",
"n n n n n n n n n n n n n n n n n n n n n n n n n n n n n n n n n n n n n n n n n n n n n n n n n n n n n n n n n n n n ",
"n n n n n n n n n n n n n n n n n n n n n n n n n n n n n n n n n n n n n n n n n n n n n n n n n n n n n n n n n n n n "
};
