/* XPM */
static char *_16554ef83fd4e64fe46bc5246d17f97IkuuBRopOBHAygvY[] = {
/* columns rows colors chars-per-pixel */
"60 60 254 2 ",
"   c #0C1D25",
".  c #0B1C25",
"X  c #0B1B24",
"o  c #0B1A23",
"O  c #0B1923",
"+  c #0B1C24",
"@  c #0C1E24",
"#  c #0D2025",
"$  c #0C2025",
"%  c #0B1E24",
"&  c #0A1D24",
"*  c #0A1C24",
"=  c #0A1B24",
"-  c #0C1D24",
";  c #0D1F25",
":  c #0B1F24",
">  c #0C1B24",
",  c #0D1D25",
"<  c #0E2026",
"1  c #0F2127",
"2  c #0C1E25",
"3  c #071821",
"4  c #091922",
"5  c #0D1C25",
"6  c #122028",
"7  c #15232A",
"8  c #15222A",
"9  c #101F27",
"0  c #0C1C24",
"q  c #081821",
"w  c #132029",
"e  c #1D282F",
"r  c #242D34",
"t  c #242C33",
"y  c #19252C",
"u  c #112028",
"i  c #0A1B23",
"p  c #081922",
"a  c #0F1E26",
"s  c #1B262E",
"d  c #2C3239",
"f  c #373A40",
"g  c #36393F",
"h  c #252E34",
"j  c #1E2930",
"k  c #32373D",
"l  c #3F4045",
"z  c #3E3F44",
"x  c #2A3138",
"c  c #1B272E",
"v  c #2B3238",
"b  c #36393E",
"n  c #252D34",
"m  c #18242C",
"M  c #1D272F",
"N  c #232C33",
"B  c #111F28",
"V  c #14222A",
"C  c #101E27",
"Z  c #0A1A23",
"A  c #091A23",
"S  c #0E1D26",
"D  c #16232B",
"F  c #1C272E",
"G  c #202A31",
"H  c #202A32",
"J  c #1C262E",
"K  c #16222A",
"L  c #101E26",
"P  c #142129",
"I  c #2A3137",
"U  c #31353C",
"Y  c #293037",
"T  c #1F2930",
"R  c #16232A",
"E  c #0E1D25",
"W  c #081921",
"Q  c #0C1C25",
"!  c #19242C",
"~  c #2B3138",
"^  c #383A40",
"/  c #414146",
"(  c #424147",
")  c #37393F",
"_  c #0F1D26",
"`  c #0A1922",
"'  c #0D1A23",
"]  c #0E1A24",
"[  c #0C1923",
"{  c #33373D",
"}  c #434348",
"|  c #4E4A4E",
" . c #424247",
".. c #31363C",
"X. c #212A32",
"o. c #0F1C25",
"O. c #0F1A24",
"+. c #171B26",
"@. c #1B1C28",
"#. c #1A1C27",
"$. c #131B25",
"%. c #0E1923",
"&. c #091822",
"*. c #1D2730",
"=. c #34373E",
"-. c #444348",
";. c #434247",
":. c #32363C",
">. c #0F1B25",
",. c #0D1923",
"<. c #151B25",
"1. c #201D29",
"2. c #271F2B",
"3. c #261E2B",
"4. c #121A25",
"5. c #101A24",
"6. c #1C1D28",
"7. c #2D202D",
"8. c #372230",
"9. c #352130",
"0. c #251E2A",
"q. c #181C27",
"w. c #4D4A4E",
"e. c #424246",
"r. c #0D1A24",
"t. c #1B1C27",
"y. c #2B1F2C",
"u. c #35212F",
"i. c #33212E",
"p. c #231E2A",
"a. c #1A252D",
"s. c #3A3C42",
"d. c #444347",
"f. c #454348",
"g. c #393B41",
"h. c #132028",
"j. c #161B26",
"k. c #211D29",
"l. c #291F2C",
"z. c #281E2B",
"x. c #222B32",
"c. c #2C3339",
"v. c #34383D",
"b. c #34383E",
"n. c #212B32",
"m. c #17242B",
"M. c #0A1822",
"N. c #151B26",
"B. c #171C27",
"V. c #121A24",
"C. c #1A262D",
"Z. c #1D2830",
"A. c #1E2830",
"S. c #15212A",
"D. c #2F343A",
"F. c #3A3B41",
"G. c #0B1922",
"H. c #272F36",
"J. c #3C3D42",
"K. c #464449",
"L. c #48464B",
"P. c #4C494D",
"I. c #404046",
"U. c #4B484C",
"Y. c #3D3E43",
"T. c #111F27",
"R. c #2C3238",
"E. c #17232B",
"W. c #091A22",
"Q. c #132129",
"!. c #262E35",
"~. c #14212A",
"^. c #2D3339",
"/. c #2F353A",
"(. c #3D3F44",
"). c #3B3D42",
"_. c #32373C",
"`. c #30353B",
"'. c #19252D",
"]. c #35383E",
"[. c #283037",
"{. c #373A3F",
"}. c #3F3F44",
"|. c #30363B",
" X c #141F28",
".X c #141D27",
"XX c #131B26",
"oX c #111A25",
"OX c #0E1A23",
"+X c #18232C",
"@X c #2E333A",
"#X c #47464A",
"$X c #272E36",
"%X c #252B33",
"&X c #242830",
"*X c #23232D",
"=X c #211F2A",
"-X c #1D1D28",
";X c #0F1A23",
":X c #35363C",
">X c #343039",
",X c #322833",
"<X c #2F232F",
"1X c #1C1C28",
"2X c #484148",
"3X c #473A43",
"4X c #442F3B",
"5X c #412735",
"6X c #382231",
"7X c #261F2B",
"8X c #191C27",
"9X c #3C3E43",
"0X c #4A474C",
"qX c #4D494E",
"wX c #453E45",
"eX c #4B3E46",
"rX c #493741",
"tX c #472E3B",
"yX c #442836",
"uX c #3B2332",
"iX c #281F2C",
"pX c #0C1A23",
"aX c #252E35",
"sX c #3A3C41",
"dX c #433640",
"fX c #493641",
"gX c #48313D",
"hX c #462B39",
"jX c #442736",
"kX c #3C2332",
"lX c #1C272F",
"zX c #2E343A",
"xX c #402B38",
"cX c #462C3A",
"vX c #452736",
"bX c #432534",
"nX c #0B1B23",
"mX c #17242C",
"MX c #0A1A22",
"NX c #3C2433",
"BX c #422635",
"VX c #422535",
"CX c #422534",
"ZX c #412433",
"AX c #392231",
"SX c #32202E",
"DX c #362230",
"FX c #2F202D",
"GX c #211E29",
"HX c #241E2A",
"JX c #241E2B",
"KX c #141B25",
"LX c #161C26",
"PX c #151C26",
/* pixels */
"  . X o O O O O O O o o X + @ # # $ % & * * * * * * = X + - ; # # : & * * * * * * = X > , < 1 1 # 2 & * * * * * * X X + ",
"3 3 3 3 3 3 3 3 3 3 3 3 3 3 3 3 3 3 3 3 3 3 3 3 3 3 3 3 3 3 3 3 3 3 3 3 3 3 3 3 3 3 3 4 5 6 7 8 9 0 4 3 3 3 3 3 3 3 3 3 ",
"3 3 3 3 3 3 3 3 3 3 3 3 3 3 3 3 3 3 3 3 3 3 3 3 3 3 3 3 3 3 3 3 3 3 3 3 3 3 3 3 3 3 q 0 w e r t y u i 3 3 3 3 3 3 3 3 3 ",
"3 3 3 3 3 3 3 3 3 3 3 3 3 3 3 3 3 3 3 3 3 3 3 3 3 3 3 3 3 3 3 3 3 3 3 3 3 3 3 3 3 3 p a s d f g h y 0 3 3 3 3 3 3 3 3 3 ",
"3 3 3 3 3 3 3 3 3 3 3 3 3 3 3 3 3 3 3 3 3 3 3 3 3 3 3 3 3 3 3 3 3 3 3 3 3 3 3 3 3 3 p 9 j k l z x c 5 3 3 3 3 3 3 3 3 3 ",
"3 3 3 3 3 3 3 3 3 3 3 3 3 3 3 3 3 3 3 3 3 3 3 3 3 3 3 3 3 3 3 3 3 3 3 3 3 3 3 3 3 3 p a s v g b n m 0 3 3 3 3 3 3 3 3 3 ",
"3 3 3 3 3 3 3 3 3 3 3 3 3 3 3 3 3 3 3 3 3 3 3 3 3 3 3 3 3 3 3 3 3 3 3 3 3 3 3 3 3 3 q 0 6 M N N m B i 3 3 3 3 3 3 3 3 3 ",
"3 3 3 3 3 3 3 3 3 3 3 3 3 3 3 3 3 3 3 3 3 3 3 3 3 3 3 3 3 3 3 3 3 3 3 3 3 3 3 3 3 3 3 4 5 6 8 V C 0 4 3 3 3 3 3 3 3 3 3 ",
"3 3 3 3 3 3 3 3 3 3 3 3 3 3 3 3 3 p Z X 0 0 0 0 X Z 4 3 3 3 3 3 3 3 3 3 3 3 3 3 3 3 3 q p 4 A A p p 3 3 3 3 3 3 3 3 3 3 ",
"Z 3 3 3 3 3 3 3 3 3 3 3 3 3 3 3 A S D F G H H G J K L 4 3 3 3 3 3 3 3 3 3 3 3 3 3 3 3 3 3 3 3 3 3 3 3 3 3 3 3 3 3 3 3 3 ",
"0 3 3 3 3 3 3 3 3 3 3 3 3 3 3 3 X P G I U U U U Y T R Z 3 3 3 3 3 3 3 3 3 3 3 3 3 3 3 3 3 3 3 3 3 3 3 3 3 3 3 3 3 3 3 3 ",
"E W 3 3 3 3 3 3 3 3 3 3 3 3 3 3 Q ! ~ ^ / ( ( / ) Y F X 3 3 3 3 3 3 3 3 3 3 3 3 3 3 3 3 3 3 3 3 3 3 3 3 3 3 3 3 3 3 3 3 ",
"_ 4 ` ' ] ] [ ` q 3 3 3 3 3 3 3 E M { } | | | |  ...X.Q 3 3 3 3 3 3 3 3 3 3 3 3 3 3 3 3 3 3 3 3 3 3 3 3 3 3 3 3 3 3 3 3 ",
"o.O O.+.@.#.$.%.&.3 3 3 3 3 3 3 E *.=.-.| | | | ;.:.X.Q 3 3 3 3 3 3 3 3 3 3 3 3 3 3 3 3 3 3 3 3 3 3 3 3 3 3 3 3 3 3 3 3 ",
">.,.<.1.2.3.#.4.` 3 3 3 3 3 3 3 E *.=.-.| | | | ;.:.X.Q 3 3 3 3 3 3 3 3 3 3 3 3 3 3 3 3 3 3 3 3 3 3 3 3 3 3 3 3 3 3 3 3 ",
"] 5.6.7.8.9.0.q.[ 3 3 3 3 3 3 3 E M { ;.w.| | | e...X.Q 3 3 3 3 3 3 3 3 3 3 3 3 3 3 3 3 3 3 3 3 3 3 3 3 3 3 3 3 p p p p ",
"r.5.t.y.u.i.p.+.O 3 3 3 3 3 3 3 5 a.d s.d.f.f.-.g.v e X 3 3 3 3 3 3 3 3 3 3 3 3 3 3 3 3 3 3 3 3 3 3 3 3 3 3 p Z 5 9 6 h.",
"[ ' j.k.l.z.t.$.` 3 3 3 3 3 3 3 X 8 x.c.v.b.b.b.d n.m.X 3 3 3 3 3 3 3 3 3 3 3 3 3 3 3 3 3 3 3 3 3 3 3 3 3 3 4 _ 8 e x.N ",
"M.` %.N.q.B.V.,.&.3 3 3 3 3 3 3 A E 8 C.Z.A.A.A.a.S._ 4 3 3 3 3 3 3 3 3 3 3 3 3 3 3 3 3 3 3 3 3 3 3 3 3 3 3 Z V G D.f F.",
"q q ` O [ [ G.&.q 3 3 3 3 3 3 3 q A X 5 S S S S 5 X Z q 3 3 3 3 3 3 3 3 3 3 3 3 3 3 3 3 3 3 3 3 3 3 3 3 3 3 X m H.J.K.L.",
"3 3 3 3 3 3 3 3 3 3 3 3 3 3 3 3 3 3 3 3 3 3 3 3 3 3 3 3 3 3 3 3 3 3 3 3 3 3 3 3 3 3 3 3 3 3 3 3 3 3 3 3 3 3 0 a.~ ( P.| ",
"3 3 3 3 3 3 3 3 3 3 3 3 3 3 3 3 3 3 3 3 3 3 3 3 3 3 3 3 3 3 3 3 3 3 3 3 3 3 3 3 3 3 3 3 3 3 3 3 3 3 3 3 3 3 0 a.~ ( P.| ",
"3 3 3 3 3 3 3 3 3 3 3 3 3 3 3 3 3 3 3 3 3 3 3 3 3 3 3 3 3 3 3 3 3 3 3 3 3 3 3 3 3 3 3 3 3 3 3 3 3 3 3 3 3 3 0 a.~ ( P.| ",
"3 3 3 3 3 3 3 3 3 3 3 3 3 3 3 3 3 3 3 3 3 3 3 3 3 3 3 3 3 3 3 3 3 3 3 3 3 3 3 3 3 3 3 3 3 3 3 3 3 3 3 3 3 3 0 a.x I.U.w.",
"3 3 3 3 3 3 3 3 3 3 3 3 3 3 3 3 3 3 3 3 3 3 3 3 3 3 3 3 3 3 3 3 3 3 3 3 3 3 3 3 3 3 3 3 3 3 3 3 3 3 3 3 3 3 o 8 x...s.Y.",
"3 3 3 3 3 3 3 3 3 3 3 3 3 3 3 3 3 3 3 3 3 3 3 3 3 3 3 3 3 3 3 3 3 3 3 3 3 3 3 3 3 3 3 3 3 3 3 3 3 3 3 3 3 3 A T.y r I R.",
"3 3 3 3 3 3 3 3 3 3 3 3 3 3 3 3 3 3 3 3 3 3 3 3 3 3 3 3 3 3 3 3 3 3 3 3 3 3 3 3 3 3 3 3 3 3 3 3 3 3 3 3 3 3 p 0 B E.C.s ",
"3 3 3 3 3 3 3 3 3 3 3 3 3 3 3 3 3 3 3 3 3 Z X 0 X = A 3 3 3 3 3 3 3 3 3 3 3 3 3 3 3 3 3 3 3 3 3 3 3 3 3 3 3 3 q p 4 W.A ",
"3 3 3 3 3 3 3 3 3 3 3 3 3 3 3 3 3 3 3 3 A a P y m Q.S 4 3 3 3 3 3 3 3 3 3 3 3 3 3 3 3 3 3 3 3 3 3 3 3 3 3 3 3 3 3 3 3 3 ",
"3 3 3 3 3 3 3 3 3 3 3 3 3 3 3 3 3 3 3 3 X K T H.!.M ~.Z 3 3 3 3 3 3 3 3 3 3 3 3 3 3 3 3 3 3 3 3 3 3 3 3 3 3 3 3 3 3 3 3 ",
"3 3 3 3 3 3 3 3 3 3 3 3 3 3 3 3 3 3 3 q 5 T ^.s.^ I M X 3 3 3 3 3 3 3 3 3 3 3 3 3 3 3 3 3 3 3 3 3 3 3 3 3 3 3 3 3 3 3 3 ",
"3 3 3 3 3 3 3 3 3 3 3 3 3 3 3 3 3 3 3 q 5 G /.(.).c.A.X 3 3 3 3 3 3 3 3 3 3 3 3 3 3 3 3 3 3 3 3 3 3 3 3 3 3 3 3 3 3 3 3 ",
"3 3 3 3 3 3 3 3 3 3 3 3 3 3 3 3 3 3 3 3 0 s !._.`.r '.X 3 3 3 3 3 3 3 3 3 3 3 3 3 3 3 3 3 3 3 3 3 3 3 3 3 3 3 3 3 3 3 3 ",
"3 3 3 3 3 3 3 3 3 3 3 3 3 3 3 3 3 3 3 3 Z 6 y T j m T.W.3 3 3 3 3 3 3 3 3 3 3 3 3 3 3 3 3 3 3 3 3 3 3 3 3 3 3 3 3 3 3 3 ",
"3 3 3 3 3 3 3 3 3 3 3 3 3 3 3 3 3 3 3 3 p 0 S B T.S X p 3 3 3 3 3 3 3 W p p p q 3 3 3 3 3 3 3 3 3 3 3 3 3 3 3 3 3 3 3 3 ",
"3 3 3 3 3 3 3 3 3 3 3 3 3 3 3 3 3 3 3 3 3 p p p p p p 3 3 3 3 3 4 X 5 S a a a S 0 i W 3 3 3 3 3 3 3 3 3 3 3 3 3 3 3 3 3 ",
"3 3 3 3 3 3 3 3 3 3 3 3 3 3 3 3 3 3 3 3 3 3 3 3 3 3 3 3 3 3 3 4 E E.Z.N n n n n.C.Q.X 3 3 3 3 3 3 3 3 3 3 3 3 3 3 3 3 3 ",
"3 3 3 3 3 3 3 3 3 3 3 3 3 3 3 3 3 3 3 3 3 3 3 3 3 3 3 3 3 3 3 A B T I { ].].].`.n s 5 W 3 3 3 3 3 3 3 3 3 3 3 3 3 3 3 3 ",
"p p p q q q 3 3 3 3 3 3 3 3 3 3 3 3 3 3 3 3 3 3 3 3 3 3 3 3 3 Z 8 [.{.;.K.K.K.}.|.x.a p 3 3 3 3 3 3 3 3 3 3 3 3 3 3 3 3 ",
"Q.P  X.XXXoXOXG.q 3 3 3 3 3 3 3 3 3 3 3 3 3 3 3 3 3 3 3 3 3 3 Z +X@Xz P.| | | #Xf $XB p 3 3 3 3 3 3 3 3 3 3 3 3 3 3 3 3 ",
"x.%X&X*X=X-X<.;X&.3 3 3 3 3 3 3 3 3 3 3 3 3 3 3 3 3 3 3 3 3 3 Z +X@Xz P.| | | #Xf $XB p 3 3 3 3 3 3 3 3 3 3 3 3 3 3 3 3 ",
"..:X>X,X<Xl.1X$.O 3 3 3 3 3 3 3 3 3 3 3 3 3 3 3 3 3 3 3 3 3 3 Z +X@Xz P.| | | #Xf $XB p 3 3 3 3 3 3 3 3 3 3 3 3 3 3 3 3 ",
";.2X3X4X5X6X7X8X[ 3 3 3 3 3 3 3 3 3 3 3 3 3 3 3 3 3 3 3 3 3 3 Z E.c.9X0XqXqXqXK.g !.9 p 3 3 3 3 3 3 3 3 3 3 3 3 3 3 3 3 ",
"wXeXrXtXyXuXiX#.pX3 3 3 3 3 3 3 3 3 3 3 3 3 3 3 3 3 3 3 3 3 3 Z ~.aXk z I.I.I.sX^.G S p 3 3 3 3 3 3 3 3 3 3 3 3 3 3 3 3 ",
"dXfXgXhXjXkXl.#.pX3 3 3 3 3 3 3 3 3 3 3 3 3 3 3 3 3 3 3 3 3 3 A 9 lX!.zX`.`.`.v x.m Q W 3 3 3 3 3 3 3 3 3 3 3 3 3 3 3 3 ",
"xXcXhXvXbXkXl.#.pX3 3 3 3 3 3 3 3 3 3 3 3 3 3 3 3 3 3 3 3 3 3 p nXB 8 y a.a.a.mXQ.a MX3 3 3 3 3 3 3 3 3 3 3 3 3 3 3 3 3 ",
"NXBXVXCXZXAX2.8X[ 3 3 3 3 3 3 3 3 3 3 3 3 3 3 3 3 3 3 3 3 3 3 3 p Z Z X X X X X Z A q 3 3 3 3 3 3 3 3 3 3 3 3 3 3 3 3 3 ",
"SX8.6X6XDXFXk.j.O 3 3 3 3 3 3 3 3 3 3 3 3 3 3 3 3 3 3 3 3 3 3 3 3 3 3 3 3 3 3 3 3 3 3 3 3 3 3 3 3 3 3 3 3 3 3 3 3 3 3 3 ",
"GXHXJXJXp.1.j.5.` 3 3 3 3 3 3 3 3 3 3 3 3 3 3 3 3 3 3 3 3 3 3 3 3 3 3 3 3 3 3 3 3 3 3 3 3 3 3 3 3 3 3 3 3 3 3 3 3 3 3 3 ",
"KXLXLXLXPX$.O.G.q 3 3 3 3 3 3 3 3 3 3 3 3 3 3 3 3 3 3 3 3 3 3 3 3 3 3 3 3 3 3 3 3 3 3 3 3 3 3 3 3 3 3 3 3 3 3 3 3 3 3 3 ",
"` ` ` ` 4 4 4 q 3 3 3 3 3 3 3 3 3 3 3 3 3 3 3 3 3 3 3 3 3 3 3 3 3 3 3 3 3 3 3 3 3 3 3 3 3 3 3 3 3 3 3 3 3 3 3 3 3 3 3 3 ",
"` 3 3 3 3 3 3 3 3 3 3 3 3 3 3 3 3 3 3 3 3 3 3 3 3 3 3 3 3 3 3 3 3 3 3 3 3 3 3 3 3 3 3 3 3 3 3 3 3 3 3 3 3 3 3 3 3 3 3 3 ",
"O 3 3 3 3 3 3 3 3 3 3 3 3 3 3 3 3 3 3 3 3 3 3 3 3 3 3 3 3 3 3 3 3 3 3 3 3 3 3 3 3 3 3 3 3 3 3 3 3 3 3 3 3 3 3 3 3 3 3 3 ",
"' q 3 3 3 3 3 3 3 3 3 3 3 3 3 3 3 3 3 3 3 3 3 3 3 3 3 3 3 3 3 3 3 3 3 3 3 3 3 3 3 3 3 3 3 3 3 3 3 3 3 3 3 3 3 3 3 3 3 3 ",
"OXq 3 3 3 3 3 3 3 3 3 3 3 3 3 3 3 3 3 3 3 3 3 3 3 3 3 3 3 3 3 3 3 3 3 3 3 3 3 3 3 3 3 3 3 3 3 3 3 3 3 3 3 3 3 3 3 3 3 3 ",
"[ 3 3 3 3 3 3 3 3 3 3 3 3 3 3 3 3 3 3 3 3 3 3 3 3 3 3 3 3 3 3 3 3 3 3 3 3 3 3 3 3 3 3 3 3 3 3 3 3 3 3 3 3 3 3 3 3 3 3 3 ",
"` 3 3 3 3 3 3 3 3 3 3 3 3 3 3 3 3 3 3 3 3 3 3 3 3 3 3 3 3 3 3 3 3 3 3 3 3 3 3 3 3 3 3 3 3 3 3 3 3 3 3 3 3 3 3 3 3 3 3 3 ",
"q 3 3 3 3 3 3 3 3 3 3 3 3 3 3 3 3 3 3 3 3 3 3 3 3 3 3 3 3 3 3 3 3 3 3 3 3 3 3 3 3 3 3 3 3 3 3 3 3 3 3 3 3 3 3 3 3 3 3 3 ",
"3 3 3 3 3 3 3 3 3 3 3 3 3 3 3 3 3 3 3 3 3 3 3 3 3 3 3 3 3 3 3 3 3 3 3 3 3 3 3 3 3 3 3 3 3 3 3 3 3 3 3 3 3 3 3 3 3 3 3 3 ",
"3 3 3 3 3 3 3 3 3 3 3 3 3 3 3 3 3 3 3 3 3 3 3 3 3 3 3 3 3 3 3 3 3 3 3 3 3 3 3 3 3 3 3 3 3 3 3 3 3 3 3 3 3 3 3 3 3 3 3 3 "
};
